# xmcd CD database file
#
# Track frame offsets:
#	150
#	16640
#	33065
#	47000
#	63950
#	79922
#	93010
#	107670
#	125904
#	141395
#	155997
#	170162
#	184200
#	198510
#	212355
#
# Disc length: 3006 seconds
#
# Revision: 1
# Processed by: cddbd v1.5.2PL0 Copyright (c) Steve Scherf et al.
# Submitted via: CDex 1.50
#
DISCID=cd0bbc0f
DTITLE=Rionegro e Solimões - Sem Limite - CD 1
DYEAR=1900
DGENRE=Country
TTITLE0=A Gente se Entrega
TTITLE1=Esperando na Janela
TTITLE2=Peão Apaixonado
TTITLE3=Depois de Você
TTITLE4=Ô de casa, ô de fora
TTITLE5=Brete da Solidão
TTITLE6=Uai, Uai
TTITLE7=Boiadeiro e Violeiro
TTITLE8=De Cara Cheia
TTITLE9=Chora, Viola
TTITLE10=Uma Noite no Forró
TTITLE11=Enlouquecendo de Paixão
TTITLE12=No Pique do Rodeio
TTITLE13=Eu Quero Fazer Amor
TTITLE14=Saudade Pulou no Peito
EXTD=
EXTT0=
EXTT1=
EXTT2=
EXTT3=
EXTT4=
EXTT5=
EXTT6=
EXTT7=
EXTT8=
EXTT9=
EXTT10=
EXTT11=
EXTT12=
EXTT13=
EXTT14=
PLAYORDER=
